<svg width="34" height="35" viewBox="0 0 34 35" fill="none" xmlns="http://www.w3.org/2000/svg">
<path d="M19.8334 11.6667H6.61113C6.36065 11.6667 6.12043 11.5643 5.94331 11.3819C5.76619 11.1996 5.66669 10.9523 5.66669 10.6945V6.8056C5.66669 6.54775 5.76619 6.30046 5.94331 6.11813C6.12043 5.9358 6.36065 5.83337 6.61113 5.83337H19.8334C20.0838 5.83337 20.3241 5.9358 20.5012 6.11813C20.6783 6.30046 20.7778 6.54775 20.7778 6.8056V10.6945C20.7778 10.9523 20.6783 11.1996 20.5012 11.3819C20.3241 11.5643 20.0838 11.6667 19.8334 11.6667ZM7.55558 9.72226H18.8889V7.71949H7.55558V9.72226Z" fill="black"/>
<path d="M19.8334 13.6888H6.61113C6.36065 13.6888 6.12043 13.7913 5.94331 13.9736C5.76619 14.1559 5.66669 14.4032 5.66669 14.6611V18.4722C5.66669 18.73 5.76619 18.9773 5.94331 19.1596C6.12043 19.342 6.36065 19.4444 6.61113 19.4444H17.34L20.7778 15.8472V14.6611C20.7778 14.4032 20.6783 14.1559 20.5012 13.9736C20.3241 13.7913 20.0838 13.6888 19.8334 13.6888ZM18.8889 17.5H7.55558V15.5555H18.8889V17.5Z" fill="black"/>
<path d="M10.4456 30.6347V30.5764L10.7478 29.225H3.7778V3.8889H22.6667V13.8542L24.5556 12.0167V2.91668C24.5556 2.65883 24.4561 2.41154 24.279 2.22922C24.1018 2.04689 23.8616 1.94446 23.6111 1.94446H2.83336C2.58288 1.94446 2.34266 2.04689 2.16554 2.22922C1.98842 2.41154 1.88892 2.65883 1.88892 2.91668V30.1389C1.88892 30.3967 1.98842 30.644 2.16554 30.8264C2.34266 31.0087 2.58288 31.1111 2.83336 31.1111H10.3889C10.3967 30.9511 10.4156 30.7919 10.4456 30.6347Z" fill="black"/>
<path d="M20.7778 18.6375L20.0411 19.4055C20.2239 19.3667 20.3914 19.2731 20.5225 19.1364C20.6536 18.9997 20.7425 18.8261 20.7778 18.6375Z" fill="black"/>
<path d="M5.66669 26.1917C5.66669 26.4495 5.76619 26.6968 5.94331 26.8792C6.12043 27.0615 6.36065 27.1639 6.61113 27.1639H11.1822L11.4656 25.9L11.5884 25.3653V25.3167H7.55558V23.3334H13.5434L15.4322 21.3889H6.61113C6.36065 21.3889 6.12043 21.4913 5.94331 21.6737C5.76619 21.856 5.66669 22.1033 5.66669 22.3611V26.1917Z" fill="black"/>
<path d="M31.6294 16.2069L28.4467 12.9306C28.3054 12.7848 28.1376 12.6691 27.9529 12.5901C27.7681 12.5112 27.57 12.4706 27.37 12.4706C27.17 12.4706 26.9719 12.5112 26.7871 12.5901C26.6024 12.6691 26.4346 12.7848 26.2933 12.9306L13.345 26.3375L12.2778 31.0139C12.2378 31.2156 12.2369 31.4235 12.2751 31.6256C12.3133 31.8277 12.3899 32.0201 12.5005 32.1917C12.611 32.3633 12.7533 32.5107 12.9193 32.6256C13.0853 32.7405 13.2717 32.8205 13.4678 32.8611C13.5651 32.8712 13.6632 32.8712 13.7606 32.8611C13.8763 32.8805 13.9943 32.8805 14.11 32.8611L18.6906 31.8208L31.6294 18.4722C31.7708 18.3276 31.883 18.1557 31.9595 17.9663C32.0361 17.777 32.0755 17.5739 32.0755 17.3688C32.0755 17.1636 32.0361 16.9605 31.9595 16.7712C31.883 16.5818 31.7708 16.4099 31.6294 16.2653V16.2069ZM17.7272 30.0514L14.2706 30.8389L15.1111 27.3097L24.82 17.2083L27.4833 19.95L17.7272 30.0514ZM28.5506 18.8514L25.8872 16.1097L27.3889 14.5833L30.0711 17.3444L28.5506 18.8514Z" fill="black"/>
</svg>
