<svg width="338" height="38" viewBox="0 0 338 38" fill="none" xmlns="http://www.w3.org/2000/svg">
<rect x="168" width="170" height="38" rx="19" fill="#4CE0D7"/>
<path d="M49.9651 15.95C49.9651 16.8833 49.7401 17.7583 49.2901 18.575C48.8568 19.3917 48.1651 20.05 47.2151 20.55C46.2818 21.05 45.0985 21.3 43.6651 21.3H40.7401V28H37.2401V10.55H43.6651C45.0151 10.55 46.1651 10.7833 47.1151 11.25C48.0651 11.7167 48.7735 12.3583 49.2401 13.175C49.7235 13.9917 49.9651 14.9167 49.9651 15.95ZM43.5151 18.475C44.4818 18.475 45.1985 18.2583 45.6651 17.825C46.1318 17.375 46.3651 16.75 46.3651 15.95C46.3651 14.25 45.4151 13.4 43.5151 13.4H40.7401V18.475H43.5151ZM55.9501 16.3C56.4001 15.5667 56.9834 14.9917 57.7001 14.575C58.4334 14.1583 59.2668 13.95 60.2001 13.95V17.625H59.2751C58.1751 17.625 57.3418 17.8833 56.7751 18.4C56.2251 18.9167 55.9501 19.8167 55.9501 21.1V28H52.4501V14.15H55.9501V16.3ZM75.6325 14.15V28H72.1075V26.25C71.6575 26.85 71.0659 27.325 70.3325 27.675C69.6159 28.0083 68.8325 28.175 67.9825 28.175C66.8992 28.175 65.9409 27.95 65.1075 27.5C64.2742 27.0333 63.6159 26.3583 63.1325 25.475C62.6659 24.575 62.4325 23.5083 62.4325 22.275V14.15H65.9325V21.775C65.9325 22.875 66.2075 23.725 66.7575 24.325C67.3075 24.9083 68.0575 25.2 69.0075 25.2C69.9742 25.2 70.7325 24.9083 71.2825 24.325C71.8325 23.725 72.1075 22.875 72.1075 21.775V14.15H75.6325ZM91.9608 20.775C91.9608 21.275 91.9275 21.725 91.8608 22.125H81.7358C81.8192 23.125 82.1692 23.9083 82.7858 24.475C83.4025 25.0417 84.1608 25.325 85.0608 25.325C86.3608 25.325 87.2858 24.7667 87.8358 23.65H91.6108C91.2108 24.9833 90.4442 26.0833 89.3108 26.95C88.1775 27.8 86.7858 28.225 85.1358 28.225C83.8025 28.225 82.6025 27.9333 81.5358 27.35C80.4858 26.75 79.6608 25.9083 79.0608 24.825C78.4775 23.7417 78.1858 22.4917 78.1858 21.075C78.1858 19.6417 78.4775 18.3833 79.0608 17.3C79.6442 16.2167 80.4608 15.3833 81.5108 14.8C82.5608 14.2167 83.7692 13.925 85.1358 13.925C86.4525 13.925 87.6275 14.2083 88.6608 14.775C89.7108 15.3417 90.5192 16.15 91.0858 17.2C91.6692 18.2333 91.9608 19.425 91.9608 20.775ZM88.3358 19.775C88.3192 18.875 87.9942 18.1583 87.3608 17.625C86.7275 17.075 85.9525 16.8 85.0358 16.8C84.1692 16.8 83.4358 17.0667 82.8358 17.6C82.2525 18.1167 81.8942 18.8417 81.7608 19.775H88.3358ZM98.0155 16.175C98.4655 15.5083 99.0822 14.9667 99.8655 14.55C100.666 14.1333 101.574 13.925 102.591 13.925C103.774 13.925 104.841 14.2167 105.791 14.8C106.757 15.3833 107.516 16.2167 108.066 17.3C108.632 18.3667 108.916 19.6083 108.916 21.025C108.916 22.4417 108.632 23.7 108.066 24.8C107.516 25.8833 106.757 26.725 105.791 27.325C104.841 27.925 103.774 28.225 102.591 28.225C101.557 28.225 100.649 28.025 99.8655 27.625C99.0989 27.2083 98.4822 26.675 98.0155 26.025V28H94.5155V9.5H98.0155V16.175ZM105.341 21.025C105.341 20.1917 105.166 19.475 104.816 18.875C104.482 18.2583 104.032 17.7917 103.466 17.475C102.916 17.1583 102.316 17 101.666 17C101.032 17 100.432 17.1667 99.8655 17.5C99.3155 17.8167 98.8655 18.2833 98.5155 18.9C98.1822 19.5167 98.0155 20.2417 98.0155 21.075C98.0155 21.9083 98.1822 22.6333 98.5155 23.25C98.8655 23.8667 99.3155 24.3417 99.8655 24.675C100.432 24.9917 101.032 25.15 101.666 25.15C102.316 25.15 102.916 24.9833 103.466 24.65C104.032 24.3167 104.482 23.8417 104.816 23.225C105.166 22.6083 105.341 21.875 105.341 21.025ZM110.559 21.025C110.559 19.625 110.834 18.3833 111.384 17.3C111.951 16.2167 112.709 15.3833 113.659 14.8C114.626 14.2167 115.701 13.925 116.884 13.925C117.917 13.925 118.817 14.1333 119.584 14.55C120.367 14.9667 120.992 15.4917 121.459 16.125V14.15H124.984V28H121.459V25.975C121.009 26.625 120.384 27.1667 119.584 27.6C118.801 28.0167 117.892 28.225 116.859 28.225C115.692 28.225 114.626 27.925 113.659 27.325C112.709 26.725 111.951 25.8833 111.384 24.8C110.834 23.7 110.559 22.4417 110.559 21.025ZM121.459 21.075C121.459 20.225 121.292 19.5 120.959 18.9C120.626 18.2833 120.176 17.8167 119.609 17.5C119.042 17.1667 118.434 17 117.784 17C117.134 17 116.534 17.1583 115.984 17.475C115.434 17.7917 114.984 18.2583 114.634 18.875C114.301 19.475 114.134 20.1917 114.134 21.025C114.134 21.8583 114.301 22.5917 114.634 23.225C114.984 23.8417 115.434 24.3167 115.984 24.65C116.551 24.9833 117.151 25.15 117.784 25.15C118.434 25.15 119.042 24.9917 119.609 24.675C120.176 24.3417 120.626 23.875 120.959 23.275C121.292 22.6583 121.459 21.925 121.459 21.075ZM133.459 21.025C133.459 19.625 133.734 18.3833 134.284 17.3C134.851 16.2167 135.618 15.3833 136.584 14.8C137.551 14.2167 138.626 13.925 139.809 13.925C140.709 13.925 141.568 14.125 142.384 14.525C143.201 14.9083 143.851 15.425 144.334 16.075V9.5H147.884V28H144.334V25.95C143.901 26.6333 143.293 27.1833 142.509 27.6C141.726 28.0167 140.818 28.225 139.784 28.225C138.618 28.225 137.551 27.925 136.584 27.325C135.618 26.725 134.851 25.8833 134.284 24.8C133.734 23.7 133.459 22.4417 133.459 21.025ZM144.359 21.075C144.359 20.225 144.193 19.5 143.859 18.9C143.526 18.2833 143.076 17.8167 142.509 17.5C141.943 17.1667 141.334 17 140.684 17C140.034 17 139.434 17.1583 138.884 17.475C138.334 17.7917 137.884 18.2583 137.534 18.875C137.201 19.475 137.034 20.1917 137.034 21.025C137.034 21.8583 137.201 22.5917 137.534 23.225C137.884 23.8417 138.334 24.3167 138.884 24.65C139.451 24.9833 140.051 25.15 140.684 25.15C141.334 25.15 141.943 24.9917 142.509 24.675C143.076 24.3417 143.526 23.875 143.859 23.275C144.193 22.6583 144.359 21.925 144.359 21.075ZM164.178 20.775C164.178 21.275 164.144 21.725 164.078 22.125H153.953C154.036 23.125 154.386 23.9083 155.003 24.475C155.619 25.0417 156.378 25.325 157.278 25.325C158.578 25.325 159.503 24.7667 160.053 23.65H163.828C163.428 24.9833 162.661 26.0833 161.528 26.95C160.394 27.8 159.003 28.225 157.353 28.225C156.019 28.225 154.819 27.9333 153.753 27.35C152.703 26.75 151.878 25.9083 151.278 24.825C150.694 23.7417 150.403 22.4917 150.403 21.075C150.403 19.6417 150.694 18.3833 151.278 17.3C151.861 16.2167 152.678 15.3833 153.728 14.8C154.778 14.2167 155.986 13.925 157.353 13.925C158.669 13.925 159.844 14.2083 160.878 14.775C161.928 15.3417 162.736 16.15 163.303 17.2C163.886 18.2333 164.178 19.425 164.178 20.775ZM160.553 19.775C160.536 18.875 160.211 18.1583 159.578 17.625C158.944 17.075 158.169 16.8 157.253 16.8C156.386 16.8 155.653 17.0667 155.053 17.6C154.469 18.1167 154.111 18.8417 153.978 19.775H160.553ZM189.421 10.55V13.375H182.146V17.85H187.721V20.625H182.146V28H178.646V10.55H189.421ZM198.053 28.225C196.72 28.225 195.52 27.9333 194.453 27.35C193.387 26.75 192.545 25.9083 191.928 24.825C191.328 23.7417 191.028 22.4917 191.028 21.075C191.028 19.6583 191.337 18.4083 191.953 17.325C192.587 16.2417 193.445 15.4083 194.528 14.825C195.612 14.225 196.82 13.925 198.153 13.925C199.487 13.925 200.695 14.225 201.778 14.825C202.862 15.4083 203.712 16.2417 204.328 17.325C204.962 18.4083 205.278 19.6583 205.278 21.075C205.278 22.4917 204.953 23.7417 204.303 24.825C203.67 25.9083 202.803 26.75 201.703 27.35C200.62 27.9333 199.403 28.225 198.053 28.225ZM198.053 25.175C198.687 25.175 199.278 25.025 199.828 24.725C200.395 24.4083 200.845 23.9417 201.178 23.325C201.512 22.7083 201.678 21.9583 201.678 21.075C201.678 19.7583 201.328 18.75 200.628 18.05C199.945 17.3333 199.103 16.975 198.103 16.975C197.103 16.975 196.262 17.3333 195.578 18.05C194.912 18.75 194.578 19.7583 194.578 21.075C194.578 22.3917 194.903 23.4083 195.553 24.125C196.22 24.825 197.053 25.175 198.053 25.175ZM211.346 16.3C211.796 15.5667 212.379 14.9917 213.096 14.575C213.829 14.1583 214.662 13.95 215.596 13.95V17.625H214.671C213.571 17.625 212.737 17.8833 212.171 18.4C211.621 18.9167 211.346 19.8167 211.346 21.1V28H207.846V14.15H211.346V16.3ZM235.153 13.95C236.853 13.95 238.22 14.475 239.253 15.525C240.303 16.5583 240.828 18.0083 240.828 19.875V28H237.328V20.35C237.328 19.2667 237.053 18.4417 236.503 17.875C235.953 17.2917 235.203 17 234.253 17C233.303 17 232.545 17.2917 231.978 17.875C231.428 18.4417 231.153 19.2667 231.153 20.35V28H227.653V20.35C227.653 19.2667 227.378 18.4417 226.828 17.875C226.278 17.2917 225.528 17 224.578 17C223.611 17 222.845 17.2917 222.278 17.875C221.728 18.4417 221.453 19.2667 221.453 20.35V28H217.953V14.15H221.453V15.825C221.903 15.2417 222.478 14.7833 223.178 14.45C223.895 14.1167 224.678 13.95 225.528 13.95C226.611 13.95 227.578 14.1833 228.428 14.65C229.278 15.1 229.936 15.75 230.403 16.6C230.853 15.8 231.503 15.1583 232.353 14.675C233.22 14.1917 234.153 13.95 235.153 13.95ZM257.224 14.15V28H253.699V26.25C253.249 26.85 252.658 27.325 251.924 27.675C251.208 28.0083 250.424 28.175 249.574 28.175C248.491 28.175 247.533 27.95 246.699 27.5C245.866 27.0333 245.208 26.3583 244.724 25.475C244.258 24.575 244.024 23.5083 244.024 22.275V14.15H247.524V21.775C247.524 22.875 247.799 23.725 248.349 24.325C248.899 24.9083 249.649 25.2 250.599 25.2C251.566 25.2 252.324 24.9083 252.874 24.325C253.424 23.725 253.699 22.875 253.699 21.775V14.15H257.224ZM264.178 9.5V28H260.678V9.5H264.178ZM266.736 21.025C266.736 19.625 267.011 18.3833 267.561 17.3C268.127 16.2167 268.886 15.3833 269.836 14.8C270.802 14.2167 271.877 13.925 273.061 13.925C274.094 13.925 274.994 14.1333 275.761 14.55C276.544 14.9667 277.169 15.4917 277.636 16.125V14.15H281.161V28H277.636V25.975C277.186 26.625 276.561 27.1667 275.761 27.6C274.977 28.0167 274.069 28.225 273.036 28.225C271.869 28.225 270.802 27.925 269.836 27.325C268.886 26.725 268.127 25.8833 267.561 24.8C267.011 23.7 266.736 22.4417 266.736 21.025ZM277.636 21.075C277.636 20.225 277.469 19.5 277.136 18.9C276.802 18.2833 276.352 17.8167 275.786 17.5C275.219 17.1667 274.611 17 273.961 17C273.311 17 272.711 17.1583 272.161 17.475C271.611 17.7917 271.161 18.2583 270.811 18.875C270.477 19.475 270.311 20.1917 270.311 21.025C270.311 21.8583 270.477 22.5917 270.811 23.225C271.161 23.8417 271.611 24.3167 272.161 24.65C272.727 24.9833 273.327 25.15 273.961 25.15C274.611 25.15 275.219 24.9917 275.786 24.675C276.352 24.3417 276.802 23.875 277.136 23.275C277.469 22.6583 277.636 21.925 277.636 21.075ZM288.079 16.3C288.529 15.5667 289.112 14.9917 289.829 14.575C290.562 14.1583 291.396 13.95 292.329 13.95V17.625H291.404C290.304 17.625 289.471 17.8833 288.904 18.4C288.354 18.9167 288.079 19.8167 288.079 21.1V28H284.579V14.15H288.079V16.3ZM296.461 12.5C295.845 12.5 295.328 12.3083 294.911 11.925C294.511 11.525 294.311 11.0333 294.311 10.45C294.311 9.86667 294.511 9.38333 294.911 9C295.328 8.6 295.845 8.4 296.461 8.4C297.078 8.4 297.586 8.6 297.986 9C298.403 9.38333 298.611 9.86667 298.611 10.45C298.611 11.0333 298.403 11.525 297.986 11.925C297.586 12.3083 297.078 12.5 296.461 12.5ZM298.186 14.15V28H294.686V14.15H298.186ZM307.794 28.225C306.461 28.225 305.261 27.9333 304.194 27.35C303.128 26.75 302.286 25.9083 301.669 24.825C301.069 23.7417 300.769 22.4917 300.769 21.075C300.769 19.6583 301.078 18.4083 301.694 17.325C302.328 16.2417 303.186 15.4083 304.269 14.825C305.353 14.225 306.561 13.925 307.894 13.925C309.228 13.925 310.436 14.225 311.519 14.825C312.603 15.4083 313.453 16.2417 314.069 17.325C314.703 18.4083 315.019 19.6583 315.019 21.075C315.019 22.4917 314.694 23.7417 314.044 24.825C313.411 25.9083 312.544 26.75 311.444 27.35C310.361 27.9333 309.144 28.225 307.794 28.225ZM307.794 25.175C308.428 25.175 309.019 25.025 309.569 24.725C310.136 24.4083 310.586 23.9417 310.919 23.325C311.253 22.7083 311.419 21.9583 311.419 21.075C311.419 19.7583 311.069 18.75 310.369 18.05C309.686 17.3333 308.844 16.975 307.844 16.975C306.844 16.975 306.003 17.3333 305.319 18.05C304.653 18.75 304.319 19.7583 304.319 21.075C304.319 22.3917 304.644 23.4083 305.294 24.125C305.961 24.825 306.794 25.175 307.794 25.175ZM322.887 28.225C321.753 28.225 320.737 28.025 319.837 27.625C318.937 27.2083 318.22 26.65 317.687 25.95C317.17 25.25 316.887 24.475 316.837 23.625H320.362C320.428 24.1583 320.687 24.6 321.137 24.95C321.603 25.3 322.178 25.475 322.862 25.475C323.528 25.475 324.045 25.3417 324.412 25.075C324.795 24.8083 324.987 24.4667 324.987 24.05C324.987 23.6 324.753 23.2667 324.287 23.05C323.837 22.8167 323.112 22.5667 322.112 22.3C321.078 22.05 320.228 21.7917 319.562 21.525C318.912 21.2583 318.345 20.85 317.862 20.3C317.395 19.75 317.162 19.0083 317.162 18.075C317.162 17.3083 317.378 16.6083 317.812 15.975C318.262 15.3417 318.895 14.8417 319.712 14.475C320.545 14.1083 321.52 13.925 322.637 13.925C324.287 13.925 325.603 14.3417 326.587 15.175C327.57 15.9917 328.112 17.1 328.212 18.5H324.862C324.812 17.95 324.578 17.5167 324.162 17.2C323.762 16.8667 323.22 16.7 322.537 16.7C321.903 16.7 321.412 16.8167 321.062 17.05C320.728 17.2833 320.562 17.6083 320.562 18.025C320.562 18.4917 320.795 18.85 321.262 19.1C321.728 19.3333 322.453 19.575 323.437 19.825C324.437 20.075 325.262 20.3333 325.912 20.6C326.562 20.8667 327.12 21.2833 327.587 21.85C328.07 22.4 328.32 23.1333 328.337 24.05C328.337 24.85 328.112 25.5667 327.662 26.2C327.228 26.8333 326.595 27.3333 325.762 27.7C324.945 28.05 323.987 28.225 322.887 28.225Z" fill="black"/>
<path d="M20.1875 14.6667H6.72919C6.47424 14.6667 6.22973 14.5643 6.04944 14.3819C5.86916 14.1996 5.76788 13.9523 5.76788 13.6945V9.8056C5.76788 9.54775 5.86916 9.30046 6.04944 9.11813C6.22973 8.9358 6.47424 8.83337 6.72919 8.83337H20.1875C20.4425 8.83337 20.687 8.9358 20.8673 9.11813C21.0476 9.30046 21.1488 9.54775 21.1488 9.8056V13.6945C21.1488 13.9523 21.0476 14.1996 20.8673 14.3819C20.687 14.5643 20.4425 14.6667 20.1875 14.6667ZM7.6905 12.7223H19.2262V10.7195H7.6905V12.7223Z" fill="black"/>
<path d="M20.1875 16.6888H6.72919C6.47424 16.6888 6.22973 16.7913 6.04944 16.9736C5.86916 17.1559 5.76788 17.4032 5.76788 17.6611V21.4722C5.76788 21.73 5.86916 21.9773 6.04944 22.1596C6.22973 22.342 6.47424 22.4444 6.72919 22.4444H17.6497L21.1488 18.8472V17.6611C21.1488 17.4032 21.0476 17.1559 20.8673 16.9736C20.687 16.7913 20.4425 16.6888 20.1875 16.6888ZM19.2262 20.5H7.6905V18.5555H19.2262V20.5Z" fill="black"/>
<path d="M10.6321 33.6347V33.5764L10.9398 32.225H3.84529V6.8889H23.0715V16.8542L24.9941 15.0167V5.91668C24.9941 5.65883 24.8928 5.41154 24.7125 5.22922C24.5323 5.04689 24.2877 4.94446 24.0328 4.94446H2.88398C2.62902 4.94446 2.38451 5.04689 2.20423 5.22922C2.02395 5.41154 1.92267 5.65883 1.92267 5.91668V33.1389C1.92267 33.3967 2.02395 33.644 2.20423 33.8264C2.38451 34.0087 2.62902 34.1111 2.88398 34.1111H10.5745C10.5824 33.9511 10.6017 33.7919 10.6321 33.6347Z" fill="black"/>
<path d="M21.1488 21.6375L20.399 22.4055C20.585 22.3667 20.7555 22.2731 20.889 22.1364C21.0224 21.9997 21.1128 21.8261 21.1488 21.6375Z" fill="black"/>
<path d="M5.76788 29.1917C5.76788 29.4495 5.86916 29.6968 6.04944 29.8792C6.22973 30.0615 6.47424 30.1639 6.72919 30.1639H11.3819L11.6703 28.9L11.7953 28.3653V28.3167H7.6905V26.3334H13.7852L15.7078 24.3889H6.72919C6.47424 24.3889 6.22973 24.4913 6.04944 24.6737C5.86916 24.856 5.76788 25.1033 5.76788 25.3611V29.1917Z" fill="black"/>
<path d="M32.1942 19.2069L28.9546 15.9306C28.8109 15.7848 28.6401 15.6691 28.452 15.5901C28.264 15.5112 28.0623 15.4706 27.8587 15.4706C27.6551 15.4706 27.4535 15.5112 27.2655 15.5901C27.0774 15.6691 26.9066 15.7848 26.7629 15.9306L13.5833 29.3375L12.497 34.0139C12.4563 34.2156 12.4554 34.4235 12.4943 34.6256C12.5332 34.8277 12.6112 35.0201 12.7237 35.1917C12.8362 35.3633 12.9811 35.5107 13.15 35.6256C13.319 35.7405 13.5087 35.8205 13.7083 35.8611C13.8074 35.8712 13.9072 35.8712 14.0063 35.8611C14.1241 35.8805 14.2442 35.8805 14.362 35.8611L19.0243 34.8208L32.1942 21.4722C32.3381 21.3276 32.4523 21.1557 32.5302 20.9663C32.6081 20.777 32.6482 20.5739 32.6482 20.3688C32.6482 20.1636 32.6081 19.9605 32.5302 19.7712C32.4523 19.5818 32.3381 19.4099 32.1942 19.2653V19.2069ZM18.0438 33.0514L14.5254 33.8389L15.3809 30.3097L25.2632 20.2083L27.9741 22.95L18.0438 33.0514ZM29.0604 21.8514L26.3495 19.1097L27.878 17.5833L30.6081 20.3444L29.0604 21.8514Z" fill="black"/>
</svg>
