<svg width="314" height="35" viewBox="0 0 314 35" fill="none" xmlns="http://www.w3.org/2000/svg">
<rect x="162" y="7" width="152" height="26" rx="5" fill="#4CE0D7"/>
<path d="M49.6259 17.432C49.6259 18.328 49.4099 19.168 48.9779 19.952C48.5619 20.736 47.8979 21.368 46.9859 21.848C46.0899 22.328 44.9539 22.568 43.5779 22.568H40.7699V29H37.4099V12.248H43.5779C44.8739 12.248 45.9779 12.472 46.8899 12.92C47.8019 13.368 48.4819 13.984 48.9299 14.768C49.3939 15.552 49.6259 16.44 49.6259 17.432ZM43.4339 19.856C44.3619 19.856 45.0499 19.648 45.4979 19.232C45.9459 18.8 46.1699 18.2 46.1699 17.432C46.1699 15.8 45.2579 14.984 43.4339 14.984H40.7699V19.856H43.4339ZM55.3715 17.768C55.8035 17.064 56.3635 16.512 57.0515 16.112C57.7555 15.712 58.5555 15.512 59.4515 15.512V19.04H58.5635C57.5075 19.04 56.7075 19.288 56.1635 19.784C55.6355 20.28 55.3715 21.144 55.3715 22.376V29H52.0115V15.704H55.3715V17.768ZM74.2666 15.704V29H70.8826V27.32C70.4506 27.896 69.8826 28.352 69.1786 28.688C68.4906 29.008 67.7386 29.168 66.9226 29.168C65.8826 29.168 64.9626 28.952 64.1626 28.52C63.3626 28.072 62.7306 27.424 62.2666 26.576C61.8186 25.712 61.5946 24.688 61.5946 23.504V15.704H64.9546V23.024C64.9546 24.08 65.2186 24.896 65.7466 25.472C66.2746 26.032 66.9946 26.312 67.9066 26.312C68.8346 26.312 69.5626 26.032 70.0906 25.472C70.6186 24.896 70.8826 24.08 70.8826 23.024V15.704H74.2666ZM89.9418 22.064C89.9418 22.544 89.9098 22.976 89.8458 23.36H80.1258C80.2058 24.32 80.5418 25.072 81.1338 25.616C81.7258 26.16 82.4538 26.432 83.3178 26.432C84.5658 26.432 85.4538 25.896 85.9818 24.824H89.6058C89.2218 26.104 88.4858 27.16 87.3978 27.992C86.3098 28.808 84.9738 29.216 83.3898 29.216C82.1098 29.216 80.9578 28.936 79.9338 28.376C78.9258 27.8 78.1338 26.992 77.5578 25.952C76.9978 24.912 76.7178 23.712 76.7178 22.352C76.7178 20.976 76.9978 19.768 77.5578 18.728C78.1178 17.688 78.9018 16.888 79.9098 16.328C80.9178 15.768 82.0778 15.488 83.3898 15.488C84.6538 15.488 85.7818 15.76 86.7738 16.304C87.7818 16.848 88.5578 17.624 89.1018 18.632C89.6618 19.624 89.9418 20.768 89.9418 22.064ZM86.4618 21.104C86.4458 20.24 86.1338 19.552 85.5258 19.04C84.9178 18.512 84.1738 18.248 83.2938 18.248C82.4618 18.248 81.7578 18.504 81.1818 19.016C80.6218 19.512 80.2778 20.208 80.1498 21.104H86.4618ZM95.7543 17.648C96.1863 17.008 96.7783 16.488 97.5303 16.088C98.2983 15.688 99.1703 15.488 100.146 15.488C101.282 15.488 102.306 15.768 103.218 16.328C104.146 16.888 104.874 17.688 105.402 18.728C105.946 19.752 106.218 20.944 106.218 22.304C106.218 23.664 105.946 24.872 105.402 25.928C104.874 26.968 104.146 27.776 103.218 28.352C102.306 28.928 101.282 29.216 100.146 29.216C99.1543 29.216 98.2823 29.024 97.5303 28.64C96.7943 28.24 96.2023 27.728 95.7543 27.104V29H92.3943V11.24H95.7543V17.648ZM102.786 22.304C102.786 21.504 102.618 20.816 102.282 20.24C101.962 19.648 101.53 19.2 100.986 18.896C100.458 18.592 99.8823 18.44 99.2583 18.44C98.6503 18.44 98.0743 18.6 97.5303 18.92C97.0023 19.224 96.5703 19.672 96.2343 20.264C95.9143 20.856 95.7543 21.552 95.7543 22.352C95.7543 23.152 95.9143 23.848 96.2343 24.44C96.5703 25.032 97.0023 25.488 97.5303 25.808C98.0743 26.112 98.6503 26.264 99.2583 26.264C99.8823 26.264 100.458 26.104 100.986 25.784C101.53 25.464 101.962 25.008 102.282 24.416C102.618 23.824 102.786 23.12 102.786 22.304ZM107.796 22.304C107.796 20.96 108.06 19.768 108.588 18.728C109.132 17.688 109.86 16.888 110.772 16.328C111.7 15.768 112.732 15.488 113.868 15.488C114.86 15.488 115.724 15.688 116.46 16.088C117.212 16.488 117.812 16.992 118.26 17.6V15.704H121.644V29H118.26V27.056C117.828 27.68 117.228 28.2 116.46 28.616C115.708 29.016 114.836 29.216 113.844 29.216C112.724 29.216 111.7 28.928 110.772 28.352C109.86 27.776 109.132 26.968 108.588 25.928C108.06 24.872 107.796 23.664 107.796 22.304ZM118.26 22.352C118.26 21.536 118.1 20.84 117.78 20.264C117.46 19.672 117.028 19.224 116.484 18.92C115.94 18.6 115.356 18.44 114.732 18.44C114.108 18.44 113.532 18.592 113.004 18.896C112.476 19.2 112.044 19.648 111.708 20.24C111.388 20.816 111.228 21.504 111.228 22.304C111.228 23.104 111.388 23.808 111.708 24.416C112.044 25.008 112.476 25.464 113.004 25.784C113.548 26.104 114.124 26.264 114.732 26.264C115.356 26.264 115.94 26.112 116.484 25.808C117.028 25.488 117.46 25.04 117.78 24.464C118.1 23.872 118.26 23.168 118.26 22.352ZM129.78 22.304C129.78 20.96 130.044 19.768 130.572 18.728C131.116 17.688 131.852 16.888 132.78 16.328C133.708 15.768 134.74 15.488 135.876 15.488C136.74 15.488 137.564 15.68 138.348 16.064C139.132 16.432 139.756 16.928 140.22 17.552V11.24H143.628V29H140.22V27.032C139.804 27.688 139.22 28.216 138.468 28.616C137.716 29.016 136.844 29.216 135.852 29.216C134.732 29.216 133.708 28.928 132.78 28.352C131.852 27.776 131.116 26.968 130.572 25.928C130.044 24.872 129.78 23.664 129.78 22.304ZM140.244 22.352C140.244 21.536 140.084 20.84 139.764 20.264C139.444 19.672 139.012 19.224 138.468 18.92C137.924 18.6 137.34 18.44 136.716 18.44C136.092 18.44 135.516 18.592 134.988 18.896C134.46 19.2 134.028 19.648 133.692 20.24C133.372 20.816 133.212 21.504 133.212 22.304C133.212 23.104 133.372 23.808 133.692 24.416C134.028 25.008 134.46 25.464 134.988 25.784C135.532 26.104 136.108 26.264 136.716 26.264C137.34 26.264 137.924 26.112 138.468 25.808C139.012 25.488 139.444 25.04 139.764 24.464C140.084 23.872 140.244 23.168 140.244 22.352ZM159.27 22.064C159.27 22.544 159.238 22.976 159.174 23.36H149.454C149.534 24.32 149.87 25.072 150.462 25.616C151.054 26.16 151.782 26.432 152.646 26.432C153.894 26.432 154.782 25.896 155.31 24.824H158.934C158.55 26.104 157.814 27.16 156.726 27.992C155.638 28.808 154.302 29.216 152.718 29.216C151.438 29.216 150.286 28.936 149.262 28.376C148.254 27.8 147.462 26.992 146.886 25.952C146.326 24.912 146.046 23.712 146.046 22.352C146.046 20.976 146.326 19.768 146.886 18.728C147.446 17.688 148.23 16.888 149.238 16.328C150.246 15.768 151.406 15.488 152.718 15.488C153.982 15.488 155.11 15.76 156.102 16.304C157.11 16.848 157.886 17.624 158.43 18.632C158.99 19.624 159.27 20.768 159.27 22.064ZM155.79 21.104C155.774 20.24 155.462 19.552 154.854 19.04C154.246 18.512 153.502 18.248 152.622 18.248C151.79 18.248 151.086 18.504 150.51 19.016C149.95 19.512 149.606 20.208 149.478 21.104H155.79ZM177.785 12.248V14.96H170.801V19.256H176.153V21.92H170.801V29H167.441V12.248H177.785ZM186.072 29.216C184.792 29.216 183.64 28.936 182.616 28.376C181.592 27.8 180.784 26.992 180.192 25.952C179.616 24.912 179.328 23.712 179.328 22.352C179.328 20.992 179.624 19.792 180.216 18.752C180.824 17.712 181.648 16.912 182.688 16.352C183.728 15.776 184.888 15.488 186.168 15.488C187.448 15.488 188.608 15.776 189.648 16.352C190.688 16.912 191.504 17.712 192.096 18.752C192.704 19.792 193.008 20.992 193.008 22.352C193.008 23.712 192.696 24.912 192.072 25.952C191.464 26.992 190.632 27.8 189.576 28.376C188.536 28.936 187.368 29.216 186.072 29.216ZM186.072 26.288C186.68 26.288 187.248 26.144 187.776 25.856C188.32 25.552 188.752 25.104 189.072 24.512C189.392 23.92 189.552 23.2 189.552 22.352C189.552 21.088 189.216 20.12 188.544 19.448C187.888 18.76 187.08 18.416 186.12 18.416C185.16 18.416 184.352 18.76 183.696 19.448C183.056 20.12 182.736 21.088 182.736 22.352C182.736 23.616 183.048 24.592 183.672 25.28C184.312 25.952 185.112 26.288 186.072 26.288ZM198.832 17.768C199.264 17.064 199.824 16.512 200.512 16.112C201.216 15.712 202.016 15.512 202.912 15.512V19.04H202.024C200.968 19.04 200.168 19.288 199.624 19.784C199.096 20.28 198.832 21.144 198.832 22.376V29H195.472V15.704H198.832V17.768ZM221.688 15.512C223.32 15.512 224.632 16.016 225.624 17.024C226.632 18.016 227.136 19.408 227.136 21.2V29H223.776V21.656C223.776 20.616 223.512 19.824 222.984 19.28C222.456 18.72 221.736 18.44 220.824 18.44C219.912 18.44 219.184 18.72 218.64 19.28C218.112 19.824 217.848 20.616 217.848 21.656V29H214.488V21.656C214.488 20.616 214.224 19.824 213.696 19.28C213.168 18.72 212.448 18.44 211.536 18.44C210.608 18.44 209.872 18.72 209.328 19.28C208.8 19.824 208.536 20.616 208.536 21.656V29H205.176V15.704H208.536V17.312C208.968 16.752 209.52 16.312 210.192 15.992C210.88 15.672 211.632 15.512 212.448 15.512C213.488 15.512 214.416 15.736 215.232 16.184C216.048 16.616 216.68 17.24 217.128 18.056C217.56 17.288 218.184 16.672 219 16.208C219.832 15.744 220.728 15.512 221.688 15.512ZM242.876 15.704V29H239.492V27.32C239.06 27.896 238.492 28.352 237.788 28.688C237.1 29.008 236.348 29.168 235.532 29.168C234.492 29.168 233.572 28.952 232.772 28.52C231.972 28.072 231.34 27.424 230.876 26.576C230.428 25.712 230.204 24.688 230.204 23.504V15.704H233.564V23.024C233.564 24.08 233.828 24.896 234.356 25.472C234.884 26.032 235.604 26.312 236.516 26.312C237.444 26.312 238.172 26.032 238.7 25.472C239.228 24.896 239.492 24.08 239.492 23.024V15.704H242.876ZM249.551 11.24V29H246.191V11.24H249.551ZM252.007 22.304C252.007 20.96 252.271 19.768 252.799 18.728C253.343 17.688 254.071 16.888 254.983 16.328C255.911 15.768 256.943 15.488 258.079 15.488C259.071 15.488 259.935 15.688 260.671 16.088C261.423 16.488 262.023 16.992 262.471 17.6V15.704H265.855V29H262.471V27.056C262.039 27.68 261.439 28.2 260.671 28.616C259.919 29.016 259.047 29.216 258.055 29.216C256.935 29.216 255.911 28.928 254.983 28.352C254.071 27.776 253.343 26.968 252.799 25.928C252.271 24.872 252.007 23.664 252.007 22.304ZM262.471 22.352C262.471 21.536 262.311 20.84 261.991 20.264C261.671 19.672 261.239 19.224 260.695 18.92C260.151 18.6 259.567 18.44 258.943 18.44C258.319 18.44 257.743 18.592 257.215 18.896C256.687 19.2 256.255 19.648 255.919 20.24C255.599 20.816 255.439 21.504 255.439 22.304C255.439 23.104 255.599 23.808 255.919 24.416C256.255 25.008 256.687 25.464 257.215 25.784C257.759 26.104 258.335 26.264 258.943 26.264C259.567 26.264 260.151 26.112 260.695 25.808C261.239 25.488 261.671 25.04 261.991 24.464C262.311 23.872 262.471 23.168 262.471 22.352ZM272.496 17.768C272.928 17.064 273.488 16.512 274.176 16.112C274.88 15.712 275.68 15.512 276.576 15.512V19.04H275.688C274.632 19.04 273.832 19.288 273.288 19.784C272.76 20.28 272.496 21.144 272.496 22.376V29H269.136V15.704H272.496V17.768ZM280.544 14.12C279.952 14.12 279.456 13.936 279.056 13.568C278.672 13.184 278.48 12.712 278.48 12.152C278.48 11.592 278.672 11.128 279.056 10.76C279.456 10.376 279.952 10.184 280.544 10.184C281.136 10.184 281.624 10.376 282.008 10.76C282.408 11.128 282.608 11.592 282.608 12.152C282.608 12.712 282.408 13.184 282.008 13.568C281.624 13.936 281.136 14.12 280.544 14.12ZM282.2 15.704V29H278.84V15.704H282.2ZM291.423 29.216C290.143 29.216 288.991 28.936 287.967 28.376C286.943 27.8 286.135 26.992 285.543 25.952C284.967 24.912 284.679 23.712 284.679 22.352C284.679 20.992 284.975 19.792 285.567 18.752C286.175 17.712 286.999 16.912 288.039 16.352C289.079 15.776 290.239 15.488 291.519 15.488C292.799 15.488 293.959 15.776 294.999 16.352C296.039 16.912 296.855 17.712 297.447 18.752C298.055 19.792 298.359 20.992 298.359 22.352C298.359 23.712 298.047 24.912 297.423 25.952C296.815 26.992 295.983 27.8 294.927 28.376C293.887 28.936 292.719 29.216 291.423 29.216ZM291.423 26.288C292.031 26.288 292.599 26.144 293.127 25.856C293.671 25.552 294.103 25.104 294.423 24.512C294.743 23.92 294.903 23.2 294.903 22.352C294.903 21.088 294.567 20.12 293.895 19.448C293.239 18.76 292.431 18.416 291.471 18.416C290.511 18.416 289.703 18.76 289.047 19.448C288.407 20.12 288.087 21.088 288.087 22.352C288.087 23.616 288.399 24.592 289.023 25.28C289.663 25.952 290.463 26.288 291.423 26.288ZM305.912 29.216C304.824 29.216 303.848 29.024 302.984 28.64C302.12 28.24 301.432 27.704 300.92 27.032C300.424 26.36 300.152 25.616 300.104 24.8H303.488C303.552 25.312 303.8 25.736 304.232 26.072C304.68 26.408 305.232 26.576 305.888 26.576C306.528 26.576 307.024 26.448 307.376 26.192C307.744 25.936 307.928 25.608 307.928 25.208C307.928 24.776 307.704 24.456 307.256 24.248C306.824 24.024 306.128 23.784 305.168 23.528C304.176 23.288 303.36 23.04 302.72 22.784C302.096 22.528 301.552 22.136 301.088 21.608C300.64 21.08 300.416 20.368 300.416 19.472C300.416 18.736 300.624 18.064 301.04 17.456C301.472 16.848 302.08 16.368 302.864 16.016C303.664 15.664 304.6 15.488 305.672 15.488C307.256 15.488 308.52 15.888 309.464 16.688C310.408 17.472 310.928 18.536 311.024 19.88H307.808C307.76 19.352 307.536 18.936 307.136 18.632C306.752 18.312 306.232 18.152 305.576 18.152C304.968 18.152 304.496 18.264 304.16 18.488C303.84 18.712 303.68 19.024 303.68 19.424C303.68 19.872 303.904 20.216 304.352 20.456C304.8 20.68 305.496 20.912 306.44 21.152C307.4 21.392 308.192 21.64 308.816 21.896C309.44 22.152 309.976 22.552 310.424 23.096C310.888 23.624 311.128 24.328 311.144 25.208C311.144 25.976 310.928 26.664 310.496 27.272C310.08 27.88 309.472 28.36 308.672 28.712C307.888 29.048 306.968 29.216 305.912 29.216Z" fill="black"/>
<path d="M19.8334 11.6667H6.61113C6.36065 11.6667 6.12043 11.5643 5.94331 11.3819C5.76619 11.1996 5.66669 10.9523 5.66669 10.6945V6.8056C5.66669 6.54775 5.76619 6.30046 5.94331 6.11813C6.12043 5.9358 6.36065 5.83337 6.61113 5.83337H19.8334C20.0838 5.83337 20.3241 5.9358 20.5012 6.11813C20.6783 6.30046 20.7778 6.54775 20.7778 6.8056V10.6945C20.7778 10.9523 20.6783 11.1996 20.5012 11.3819C20.3241 11.5643 20.0838 11.6667 19.8334 11.6667ZM7.55558 9.72226H18.8889V7.71949H7.55558V9.72226Z" fill="black"/>
<path d="M19.8334 13.6888H6.61113C6.36065 13.6888 6.12043 13.7913 5.94331 13.9736C5.76619 14.1559 5.66669 14.4032 5.66669 14.6611V18.4722C5.66669 18.73 5.76619 18.9773 5.94331 19.1596C6.12043 19.342 6.36065 19.4444 6.61113 19.4444H17.34L20.7778 15.8472V14.6611C20.7778 14.4032 20.6783 14.1559 20.5012 13.9736C20.3241 13.7913 20.0838 13.6888 19.8334 13.6888ZM18.8889 17.5H7.55558V15.5555H18.8889V17.5Z" fill="black"/>
<path d="M10.4456 30.6347V30.5764L10.7478 29.225H3.7778V3.8889H22.6667V13.8542L24.5556 12.0167V2.91668C24.5556 2.65883 24.4561 2.41154 24.279 2.22922C24.1018 2.04689 23.8616 1.94446 23.6111 1.94446H2.83336C2.58288 1.94446 2.34266 2.04689 2.16554 2.22922C1.98842 2.41154 1.88892 2.65883 1.88892 2.91668V30.1389C1.88892 30.3967 1.98842 30.644 2.16554 30.8264C2.34266 31.0087 2.58288 31.1111 2.83336 31.1111H10.3889C10.3967 30.9511 10.4156 30.7919 10.4456 30.6347Z" fill="black"/>
<path d="M20.7778 18.6375L20.0411 19.4055C20.2239 19.3667 20.3914 19.2731 20.5225 19.1364C20.6536 18.9997 20.7425 18.8261 20.7778 18.6375Z" fill="black"/>
<path d="M5.66669 26.1917C5.66669 26.4495 5.76619 26.6968 5.94331 26.8792C6.12043 27.0615 6.36065 27.1639 6.61113 27.1639H11.1822L11.4656 25.9L11.5884 25.3653V25.3167H7.55558V23.3334H13.5434L15.4322 21.3889H6.61113C6.36065 21.3889 6.12043 21.4913 5.94331 21.6737C5.76619 21.856 5.66669 22.1033 5.66669 22.3611V26.1917Z" fill="black"/>
<path d="M31.6294 16.2069L28.4467 12.9306C28.3054 12.7848 28.1376 12.6691 27.9529 12.5901C27.7681 12.5112 27.57 12.4706 27.37 12.4706C27.17 12.4706 26.9719 12.5112 26.7871 12.5901C26.6024 12.6691 26.4346 12.7848 26.2933 12.9306L13.345 26.3375L12.2778 31.0139C12.2378 31.2156 12.2369 31.4235 12.2751 31.6256C12.3133 31.8277 12.3899 32.0201 12.5005 32.1917C12.611 32.3633 12.7533 32.5107 12.9193 32.6256C13.0853 32.7405 13.2717 32.8205 13.4678 32.8611C13.5651 32.8712 13.6632 32.8712 13.7606 32.8611C13.8763 32.8805 13.9943 32.8805 14.11 32.8611L18.6906 31.8208L31.6294 18.4722C31.7708 18.3276 31.883 18.1557 31.9595 17.9663C32.0361 17.777 32.0755 17.5739 32.0755 17.3688C32.0755 17.1636 32.0361 16.9605 31.9595 16.7712C31.883 16.5818 31.7708 16.4099 31.6294 16.2653V16.2069ZM17.7272 30.0514L14.2706 30.8389L15.1111 27.3097L24.82 17.2083L27.4833 19.95L17.7272 30.0514ZM28.5506 18.8514L25.8872 16.1097L27.3889 14.5833L30.0711 17.3444L28.5506 18.8514Z" fill="black"/>
</svg>
